<?xml version="1.0" encoding="UTF-8"?>
<svg xmlns="http://www.w3.org/2000/svg" xmlns:xlink="http://www.w3.org/1999/xlink" width="92px" height="92px" viewBox="0 0 69 83">
  <!-- Generator: Sketch 49 (51002) - http://www.bohemiancoding.com/sketch -->
  <title>Icons / On Demand</title>
  <desc>Created with Sketch.</desc>
  <defs></defs>
  <g id="Page-1" stroke="none" stroke-width="1" fill="none" fill-rule="evenodd">
    <g id="Home-V3" transform="translate(-846.000000, -1978.000000)">
      <g id="Icons-/-On-Demand-/-Blue" transform="translate(834.333333, 1974.333333)">
        <g id="On-Demand" transform="translate(10.850000, 4.650000)">
          <path d="M66.8518248,22.8954912 C68.1378819,21.6174565 68.1378819,19.5442719 66.8518248,18.2630181 L64.7538629,16.1801758 C63.4678057,14.9021412 61.3828343,14.9021412 60.0967771,16.1801758 L58.1189771,18.1439065 L59.6323676,19.6505065 L58.1417105,21.1345719 C58.8042248,21.7011565 59.4537486,22.2902758 60.080539,22.9115873 C60.7073295,23.5328988 61.2951486,24.1799642 61.8667295,24.8399065 L63.3606343,23.3558412 L64.8740248,24.8624412 L66.8518248,22.8954912 Z" id="Path" fill="#fff"></path>
          <path d="M44.2289105,5.24122962 L44.2289105,2.59824115 C44.2289105,1.16890269 43.0500248,0.000321923077 41.6145771,0.000321923077 L29.3645581,0.000321923077 C27.9258629,0.000321923077 26.7502248,1.16890269 26.7502248,2.59824115 L26.7502248,5.24122962 C26.7502248,6.67056808 27.9258629,7.83914885 29.3645581,7.83914885 L30.754539,7.83914885 L30.754539,12.9512873 C32.3133962,12.751695 33.8949867,12.6486796 35.4895676,12.6486796 C37.0841486,12.6486796 38.665739,12.751695 40.2245962,12.9512873 L40.2245962,7.83914885 L41.6145771,7.83914885 C43.0500248,7.83914885 44.2289105,6.67056808 44.2289105,5.24122962 Z" id="Path" fill="#fff"></path>
          <path d="M35.4895676,13.5983527 C26.4254629,13.5983527 17.9004629,17.1105335 11.4896629,23.4813912 C5.08211048,29.8554681 1.54870095,38.3284835 1.54870095,47.3423296 C1.54870095,56.3561758 5.08211048,64.8291912 11.4896629,71.2000488 C17.9004629,77.5741258 26.4254629,81.0830873 35.4895676,81.0830873 C44.7550248,81.0830873 53.4099295,77.4421373 59.859701,70.8266181 C66.0301771,64.4976104 69.4304343,56.1565835 69.4304343,47.3423296 C69.4304343,38.3284835 65.8970248,29.8554681 59.4894724,23.4813912 C53.0786724,17.1105335 44.5536724,13.5983527 35.4895676,13.5983527 Z" id="Path" fill="#15aabf"></path>
          <path d="M35.4895676,18.8682335 C50.9514819,18.8682335 63.58472,31.1174065 64.104339,46.3669027 L60.080539,46.3669027 L60.080539,48.5527604 L64.0978438,48.5527604 C63.8055581,55.5417104 60.9768819,62.1089412 56.0534914,67.156695 C50.8865295,72.4555488 44.0405486,75.4912835 36.671701,75.7842335 L36.671701,71.8245796 L34.4730629,71.8245796 L34.4730629,75.7874527 C19.5567486,75.2659373 7.5080819,63.3580027 6.88129143,48.5527604 L11.0674724,48.5527604 L11.0674724,46.3669027 L6.87479619,46.3669027 C7.39441524,31.1174065 20.0276533,18.8682335 35.4895676,18.8682335 Z" id="Path" fill="#FFFFFF"></path>
          <path d="M35.6357105,21.916845 C35.6162248,21.916845 35.5934914,21.916845 35.5740057,21.916845 L35.5740057,47.4582219 L60.0772914,39.3811719 C56.6445581,29.2309373 47.0023771,21.916845 35.6357105,21.916845 Z" id="Path" fill="#fab005"></path>
        </g>
      </g>
    </g>
  </g>
</svg>
