<?xml version="1.0" encoding="UTF-8"?>
<svg xmlns="http://www.w3.org/2000/svg" xmlns:xlink="http://www.w3.org/1999/xlink" width="88px" height="43px" viewBox="0 0 88 43">
  <!-- Generator: Sketch 49 (51002) - http://www.bohemiancoding.com/sketch -->
  <title>Icons / Food Safe</title>
  <desc>Created with Sketch.</desc>
  <defs>
    <polygon id="path-1" points="43.7109989 42.8720257 87.4206889 42.8720257 87.4206889 -0.000642142857 43.7109989 -0.000642142857 0.00130888889 -0.000642142857 0.00130888889 42.8720257"></polygon>
  </defs>
  <g id="Page-1" stroke="none" stroke-width="1" fill="none" fill-rule="evenodd">
    <g id="Home-V3" transform="translate(-116.000000, -1986.000000)">
      <g id="Icons-/-Food-Safe-/-Blue" transform="translate(113.333333, 1961.333333)">
        <g id="Food-Safe" transform="translate(3.100000, 24.800000)">
          <mask id="mask-2" fill="white">
            <use xlink:href="#path-1"></use>
          </mask>
          <g id="Clip-2"></g>
          <path d="M84.4704533,42.8720257 L2.94958111,42.8720257 C1.32001444,42.8720257 0.00130888889,41.5716864 0.00130888889,39.96954 L0.00130888889,2.90184357 C0.00130888889,1.29969714 1.32001444,-0.000642142857 2.94958111,-0.000642142857 L84.4704533,-0.000642142857 C86.10002,-0.000642142857 87.4219978,1.29969714 87.4219978,2.90184357 L87.4219978,39.96954 C87.4219978,41.5716864 86.10002,42.8720257 84.4704533,42.8720257 Z M15.3807533,24.9048686 L19.2321589,24.9048686 L19.2321589,7.07256143 L15.7210644,7.07256143 C14.4972533,8.122465 13.0411144,8.98935786 11.2446644,9.73424357 L11.2446644,13.31419 C12.5208311,12.8807436 13.8722589,12.1133829 15.3807533,11.089165 L15.3807533,24.9048686 Z M30.2366422,6.79001857 C26.0743756,6.79001857 23.9179811,9.91083286 23.9179811,15.9758721 C23.9179811,22.0377007 26.1038256,25.1874114 30.2366422,25.1874114 C34.3465533,25.1874114 36.5585756,22.0377007 36.5585756,15.9758721 C36.5585756,9.91083286 34.3727311,6.79001857 30.2366422,6.79001857 Z M32.6842644,15.9758721 C32.6842644,20.3231793 31.8498478,22.5000436 30.2366422,22.5000436 C28.5743533,22.5000436 27.7922922,20.3231793 27.7922922,15.9758721 C27.7922922,11.6253543 28.6005311,9.47738643 30.2366422,9.47738643 C31.8498478,9.47738643 32.6842644,11.65104 32.6842644,15.9758721 Z M44.6246033,6.79001857 C40.4656089,6.79001857 38.3059422,9.91083286 38.3059422,15.9758721 C38.3059422,22.0377007 40.4917867,25.1874114 44.6246033,25.1874114 C48.7345144,25.1874114 50.9465367,22.0377007 50.9465367,15.9758721 C50.9465367,9.91083286 48.7639644,6.79001857 44.6246033,6.79001857 Z M47.0722256,15.9758721 C47.0722256,20.3231793 46.2378089,22.5000436 44.6246033,22.5000436 C42.9623144,22.5000436 42.1802533,20.3231793 42.1802533,15.9758721 C42.1802533,11.6253543 42.9884922,9.47738643 44.6246033,9.47738643 C46.2378089,9.47738643 47.0722256,11.65104 47.0722256,15.9758721 Z M54.0453311,11.4969257 C54.0453311,14.4925221 55.4785644,16.1556721 58.0276256,16.1556721 C60.7304811,16.1556721 62.2127978,14.415465 62.2127978,11.268965 C62.2127978,8.40179714 60.7566589,6.79001857 58.1552422,6.79001857 C55.5276478,6.79001857 54.0453311,8.45316857 54.0453311,11.4969257 Z M56.62057,11.4744507 C56.62057,9.605815 57.1932089,8.63296857 58.1552422,8.63296857 C59.0910978,8.63296857 59.6637367,9.58012929 59.6637367,11.3460221 C59.6637367,13.2628186 59.0910978,14.2870364 58.1061589,14.2870364 C57.1670311,14.2870364 56.62057,13.31419 56.62057,11.4744507 Z M68.8455922,6.79001857 L58.2599533,25.2130971 L60.3410867,25.2130971 L70.9267256,6.79001857 L68.8455922,6.79001857 Z M66.9738811,20.5543507 C66.9738811,23.5499471 68.4038422,25.2130971 70.9529033,25.2130971 C73.6590311,25.2130971 75.1675256,23.47289 75.1675256,20.3231793 C75.1675256,17.4592221 73.6852089,15.8474436 71.0837922,15.8474436 C68.4561978,15.8474436 66.9738811,17.5105936 66.9738811,20.5543507 Z M69.54912,20.528665 C69.54912,18.66324 70.1217589,17.6903936 71.0837922,17.6903936 C72.0196478,17.6903936 72.5922867,18.6375543 72.5922867,20.4002364 C72.5922867,22.3202436 72.0196478,23.3444614 71.0314367,23.3444614 C70.0955811,23.3444614 69.54912,22.371615 69.54912,20.528665 Z M14.6968589,37.1890614 L15.6981589,37.1890614 L15.6981589,33.8434971 L18.8787589,33.8434971 L18.8787589,32.9637614 L15.6981589,32.9637614 L15.6981589,30.7002079 L19.0587311,30.7002079 L19.0587311,29.8204721 L14.6968589,29.8204721 L14.6968589,37.1890614 Z M20.1516533,33.5256364 C20.1516533,35.9497257 21.4310922,37.3110686 23.5743978,37.3110686 C25.7373367,37.3110686 26.9840533,35.9593579 26.9840533,33.5256364 C26.9840533,31.0501757 25.7471533,29.7080971 23.5743978,29.7080971 C21.4114589,29.7080971 20.1516533,31.0598079 20.1516533,33.5256364 Z M21.22167,33.474265 C21.22167,31.5510471 22.07572,30.5171971 23.5645811,30.5171971 C25.05017,30.5171971 25.90422,31.5510471 25.90422,33.4935293 C25.90422,35.4263793 25.0730756,36.4602293 23.5645811,36.4602293 C22.0659033,36.4602293 21.22167,35.3974829 21.22167,33.474265 Z M28.1751422,33.5256364 C28.1751422,35.9497257 29.4545811,37.3110686 31.5978867,37.3110686 C33.7608256,37.3110686 35.0108144,35.9593579 35.0108144,33.5256364 C35.0108144,31.0501757 33.7706422,29.7080971 31.5978867,29.7080971 C29.4349478,29.7080971 28.1751422,31.0598079 28.1751422,33.5256364 Z M29.2484311,33.474265 C29.2484311,31.5510471 30.0992089,30.5171971 31.58807,30.5171971 C33.0769311,30.5171971 33.9277089,31.5510471 33.9277089,33.4935293 C33.9277089,35.4263793 33.0965644,36.4602293 31.58807,36.4602293 C30.0893922,36.4602293 29.2484311,35.3974829 29.2484311,33.474265 Z M38.8425867,37.1890614 C40.0598533,37.1890614 40.8909978,37.0445793 41.5977978,36.3189579 C42.1704367,35.7249757 42.5238367,34.7617614 42.5238367,33.609115 C42.5238367,32.2060329 42.0559089,31.1015471 41.2247644,30.4561936 C40.4754256,29.8718436 39.6540978,29.8204721 38.5709922,29.8204721 L36.4702256,29.8204721 L36.4702256,37.1890614 L38.8425867,37.1890614 Z M39.0716422,36.3093257 L37.4682533,36.3093257 L37.4682533,30.6295721 L38.8949422,30.6295721 C40.5474144,30.6295721 41.4734533,31.6955293 41.4734533,33.609115 C41.4734533,35.407115 40.6717589,36.3093257 39.0716422,36.3093257 Z M47.6154144,35.0282507 L46.5421256,35.0282507 L46.5421256,35.1309936 C46.5421256,36.6239757 47.4681644,37.3110686 49.3725978,37.3110686 C51.1919533,37.3110686 52.20307,36.440965 52.20307,35.06999 C52.20307,33.7182793 51.3064811,33.3522579 49.7358144,32.9541293 C48.4072922,32.6137936 47.6874033,32.5238936 47.6874033,31.7244257 C47.6874033,30.9763293 48.3549367,30.5171971 49.3627811,30.5171971 C50.3509922,30.5171971 50.9138144,30.9249579 50.9432644,31.6441579 L51.9511089,31.6441579 L51.9511089,31.5317829 C51.9511089,30.4272971 51.0381589,29.7080971 49.4576756,29.7080971 C47.6350478,29.7080971 46.6272033,30.5589364 46.6272033,31.7854293 C46.6272033,32.4211507 46.9282478,32.9733936 47.4387144,33.2687793 C47.8968256,33.5352686 48.4661922,33.6476436 49.1140922,33.81139 C50.3706256,34.1292507 51.1625033,34.2416257 51.1625033,35.1631007 C51.1625033,35.9497257 50.4753367,36.440965 49.3431478,36.440965 C48.19787,36.440965 47.6448644,36.0010971 47.6154144,35.0282507 Z M53.9013533,37.1890614 L54.7324978,35.2851079 L58.2075978,35.2851079 L58.9569367,37.1890614 L60.1218478,37.1890614 L57.1146756,29.8204721 L56.0446589,29.8204721 L52.8607867,37.1890614 L53.9013533,37.1890614 Z M57.8934644,34.4471114 L55.0662644,34.4471114 L56.5224033,30.8157936 L57.8934644,34.4471114 Z M61.0707922,37.1890614 L62.06882,37.1890614 L62.06882,33.8434971 L65.2526922,33.8434971 L65.2526922,32.9637614 L62.06882,32.9637614 L62.06882,30.7002079 L65.4293922,30.7002079 L65.4293922,29.8204721 L61.0707922,29.8204721 L61.0707922,37.1890614 Z M66.7939089,37.1890614 L71.5288144,37.1890614 L71.5288144,36.3093257 L67.7952089,36.3093257 L67.7952089,33.8017579 L71.2899422,33.8017579 L71.2899422,32.9316543 L67.7952089,32.9316543 L67.7952089,30.6905757 L71.4437367,30.6905757 L71.4437367,29.8204721 L66.7939089,29.8204721 L66.7939089,37.1890614 Z" id="Fill-1" fill="#1587C9" mask="url(#mask-2)"></path>
        </g>
      </g>
    </g>
  </g>
</svg>
