<?xml version="1.0" encoding="UTF-8"?>
<svg xmlns="http://www.w3.org/2000/svg" xmlns:xlink="http://www.w3.org/1999/xlink" width="92px" height="50px" viewBox="0 0 92 50">
  <!-- Generator: Sketch 49 (51002) - http://www.bohemiancoding.com/sketch -->
  <title>Icons / Eye Catching</title>
  <desc>Created with Sketch.</desc>
  <defs>
    <polygon id="path-1" points="0 49.8214286 91.6498929 49.8214286 91.6498929 0.674152311 0 0.674152311"></polygon>
  </defs>
  <g id="Page-1" stroke="none" stroke-width="1" fill="none" fill-rule="evenodd">
    <g id="Home-V3" transform="translate(-113.000000, -2281.000000)">
      <g id="Icons-/-Eye-Catching-/-Blue" transform="translate(113.333333, 2259.333333)">
        <g id="Eye-Catching" transform="translate(0.000000, 21.700000)">
          <g id="Group-3">
            <mask id="mask-2" fill="white">
              <use xlink:href="#path-1"></use>
            </mask>
            <g id="Clip-2"></g>
            <path d="M90.07425,23.2757215 C89.8879821,23.0425377 85.4480893,17.5278917 77.8355357,11.9890188 C67.6610357,4.58467532 56.5918393,0.672032458 45.8249464,0.672032458 C35.055,0.672032458 23.9858036,4.58467532 13.8113036,11.9890188 C6.19875,17.5278917 1.75885714,23.0425377 1.57258929,23.2757215 L0,25.2471848 L1.57258929,27.218648 C1.75885714,27.4518318 6.19875,32.9664778 13.8113036,38.5053507 C23.9858036,45.9096942 35.055,49.8223371 45.8249464,49.8223371 C56.5918393,49.8223371 67.6610357,45.9096942 77.8355357,38.5053507 C85.4480893,32.9664778 89.8879821,27.4518318 90.07425,27.218648 L91.6498929,25.2471848 L90.07425,23.2757215 Z M45.8249464,42.463419 C36.2397857,42.463419 28.4409643,34.7410976 28.4409643,25.2471848 C28.4409643,23.7602593 28.6333393,22.315731 28.9906071,20.9378266 L25.0240179,20.2776438 C24.6331607,21.8705619 24.4285714,23.5361606 24.4285714,25.2471848 C24.4285714,31.3796165 27.0729643,36.9094043 31.2899464,40.7826785 C25.8606964,38.7960734 21.2436964,36.009981 17.7595714,33.487356 C13.4418214,30.3651154 10.2080893,27.2065346 8.36373214,25.2471848 C10.2080893,23.2848066 13.444875,20.1292541 17.7595714,17.0070136 C21.2436964,14.4843886 25.8606964,11.6982961 31.2899464,9.71169107 L33.9526607,12.6825136 C37.0611964,9.79951355 41.2384821,8.03095053 45.8249464,8.03095053 C55.4101071,8.03095053 63.2089286,15.753272 63.2089286,25.2471848 C63.2089286,34.7410976 55.4101071,42.463419 45.8249464,42.463419 Z M73.8872679,33.487356 C70.4031429,36.009981 65.7861429,38.7960734 60.3568929,40.7826785 C64.5769286,36.9094043 67.2213214,31.3796165 67.2213214,25.2471848 C67.2213214,19.114753 64.5769286,13.5849652 60.3568929,9.71169107 C65.7861429,11.6982961 70.4031429,14.4843886 73.8872679,17.0070136 C78.2050179,20.1292541 81.4418036,23.287835 83.2861607,25.2471848 C81.43875,27.2095629 78.2050179,30.3651154 73.8872679,33.487356 Z" id="Fill-1" fill="#1587C9" mask="url(#mask-2)"></path>
          </g>
          <path d="M35.3476733,22.6263466 C35.0411518,23.630445 34.875,24.6947892 34.875,25.7964286 C34.875,31.7894614 39.7335083,36.6464286 45.7264323,36.6464286 C51.7164917,36.6464286 56.575,31.7894614 56.575,25.7964286 C56.575,19.8033958 51.7164917,14.9464286 45.7264323,14.9464286 C42.8073168,14.9464286 40.1603465,16.1025761 38.209495,17.9759368 L43.5607294,24.0091335 L35.3476733,22.6263466 Z" id="Fill-4" fill="#87BBE6"></path>
        </g>
      </g>
    </g>
  </g>
</svg>
