<?xml version="1.0" encoding="UTF-8"?>
<svg xmlns="http://www.w3.org/2000/svg" xmlns:xlink="http://www.w3.org/1999/xlink" width="76px" height="81px" viewBox="0 0 76 81">
  <!-- Generator: Sketch 49 (51002) - http://www.bohemiancoding.com/sketch -->
  <title>Icons / Compliant</title>
  <desc>Created with Sketch.</desc>
  <defs>
    <polygon id="path-1" points="74.6834865 40.1914123 74.6834865 80.3817905 0 80.3817905 0 40.1914123 0 0.00103406219 74.6834865 0.00103406219"></polygon>
  </defs>
  <g id="Page-1" stroke="none" stroke-width="1" fill="none" fill-rule="evenodd">
    <g id="Home-V3" transform="translate(-846.000000, -2265.000000)">
      <g id="Icons-/-Compliant-/-Blue" transform="translate(834.333333, 2259.333333)">
        <g id="Compliant" transform="translate(12.400000, 6.200000)">
          <mask id="mask-2" fill="white">
            <use xlink:href="#path-1"></use>
          </mask>
          <g id="Clip-2"></g>
          <path d="M45.8647863,15.8359731 C45.8647863,9.30414692 38.5519639,11.2792057 36.0216587,5.92276355 C34.4938624,2.68959576 32.8390359,0.00103406219 29.2718892,0.00103406219 C25.7047425,0.00103406219 24.0464828,2.68959576 22.5221198,5.92276355 C19.9918146,11.2792057 12.6789921,9.30414692 12.6789921,15.8359731 L45.8647863,15.8359731 Z M29.2718892,4.22690156 C30.5112925,4.22690156 31.5241012,5.24028251 31.5241012,6.48460401 C31.5241012,7.72892552 30.5112925,8.74230646 29.2718892,8.74230646 C28.0290527,8.74230646 27.0196772,7.72892552 27.0196772,6.48460401 C27.0196772,5.24028251 28.0290527,4.22690156 29.2718892,4.22690156 Z M58.3215556,12.6839042 C58.3215556,10.8177552 56.8132396,9.3 54.9560612,9.3 L44.9621845,9.3 C46.5662667,10.3900242 48.0130189,12.0285099 48.3345194,14.8260087 L52.7979037,14.8260087 L52.7979037,42.8216933 C43.6967039,44.1635269 36.6886774,52.0765506 36.6886774,61.6073633 C36.6886774,65.4362458 37.8207695,68.999521 39.7634533,71.9832898 L5.52023169,71.9832898 L5.52023169,14.8260087 L9.98703627,14.8260087 C10.3085368,12.0285099 11.7587091,10.3900242 13.3627913,9.3 L3.3620742,9.3 C1.50489588,9.3 0,10.8177552 0,12.6839042 L0,73.376865 C0,75.2499129 1.50489588,76.7642187 3.3620742,76.7642187 L44.1960557,76.7642187 C47.3563371,79.1684809 51.2895876,80.6 55.5443387,80.6 C65.9418011,80.6 74.4,72.0798742 74.4,61.6073633 C74.4,52.0868989 67.4056544,44.1807741 58.3215556,42.8251427 L58.3215556,12.6839042 Z M55.7559795,76.6974269 C47.3445171,76.6974269 40.5020499,69.8381477 40.5020499,61.4036471 C40.5020499,52.9725933 47.3445171,46.1133141 55.7559795,46.1133141 C64.1674419,46.1133141 71.0099091,52.9725933 71.0099091,61.4036471 C71.0099091,69.8381477 64.1674419,76.6974269 55.7559795,76.6974269 Z M15.4427584,30.7161281 C14.5123476,29.7854721 13.3210099,28.5859599 13.3210099,28.5859599 L11.2953924,30.6161687 L15.4427584,34.7765456 L22.6937823,27.5070884 L20.6681648,25.4768796 C20.6681648,25.4768796 16.8641238,29.2891222 15.4427584,30.7161281 Z M42.3422719,32.1155589 L27.084909,32.1155589 C26.274662,32.1155589 25.615478,31.457206 25.615478,30.6437437 C25.615478,29.8302814 26.274662,29.1684816 27.084909,29.1684816 L42.3422719,29.1684816 C43.1525188,29.1684816 43.8117028,29.8302814 43.8117028,30.6437437 C43.8117028,31.457206 43.1525188,32.1155589 42.3422719,32.1155589 Z M15.4427584,41.6151436 C14.5123476,40.6844876 13.3210099,39.4849755 13.3210099,39.4849755 L11.2953924,41.5186311 L15.4427584,45.6755611 L22.6937823,38.4061039 L20.6681648,36.3758951 C20.6681648,36.3758951 16.8641238,40.1881377 15.4427584,41.6151436 Z M40.1381254,43.0145744 L27.084909,43.0145744 C26.274662,43.0145744 25.615478,42.3562215 25.615478,41.5427592 C25.615478,40.729297 26.274662,40.070944 27.084909,40.070944 L40.1381254,40.070944 C40.9483724,40.070944 41.6075564,40.729297 41.6075564,41.5427592 C41.6075564,42.3562215 40.9483724,43.0145744 40.1381254,43.0145744 Z M15.4427584,52.5141591 C14.5123476,51.5835031 13.3210099,50.3874378 13.3210099,50.3874378 L11.2953924,52.4176466 L15.4427584,56.5780235 L22.6937823,49.3051194 L20.6681648,47.2749106 C20.6681648,47.2749106 16.8641238,51.0906001 15.4427584,52.5141591 Z M33.3643232,53.9135899 L27.084909,53.9135899 C26.274662,53.9135899 25.615478,53.255237 25.615478,52.4417747 C25.615478,51.6283125 26.274662,50.9699595 27.084909,50.9699595 L33.3643232,50.9699595 C34.1745702,50.9699595 34.8337542,51.6283125 34.8337542,52.4417747 C34.8337542,53.255237 34.1745702,53.9135899 33.3643232,53.9135899 Z" id="Fill-1" fill="#fff" mask="url(#mask-2)"></path>
          <path d="M52.3653205,63.0093958 C50.7067104,61.3998555 48.5764139,59.3287338 48.5764139,59.3287338 L44.9601506,62.841548 L52.3653205,70.0320268 L65.3135775,57.4614273 L61.6942314,53.9516104 C61.6942314,53.9516104 54.9025623,60.5456302 52.3653205,63.0093958" id="Fill-1" fill="#d7f6ff" mask="url(#mask-2)"></path>
        </g>
      </g>
    </g>
  </g>
</svg>
